<svg xmlns="http://www.w3.org/2000/svg" width="1357" height="962" viewBox="0 0 1357 962" version="1.1"><path d="M 1026.639 380.497 C 1025.657 383.058, 1025.880 531.808, 1026.868 532.418 C 1027.345 532.713, 1043.433 532.987, 1062.618 533.026 C 1094.031 533.090, 1098.168 532.908, 1104.213 531.193 C 1117.675 527.375, 1126.637 519.986, 1132.343 508 C 1134.982 502.456, 1135.495 500.086, 1135.829 491.887 C 1136.430 477.175, 1132.994 467.592, 1124.422 460.066 C 1120.622 456.729, 1111.270 452, 1108.471 452 C 1106.022 452, 1106.794 450.500, 1110.973 447.142 C 1120.711 439.316, 1125.086 423.930, 1121.876 408.799 C 1118.917 394.853, 1110.755 386.545, 1095 381.438 C 1090.341 379.928, 1084.740 379.592, 1058.389 379.243 C 1030.046 378.868, 1027.222 378.979, 1026.639 380.497 M 1185.088 381.250 C 1184.184 383.608, 1155.228 455.415, 1135.699 503.728 C 1129.424 519.253, 1124.524 532.191, 1124.811 532.478 C 1125.098 532.765, 1133.930 533, 1144.437 533 L 1163.540 533 1169.020 518.250 L 1174.500 503.500 1202.912 503.500 L 1231.323 503.500 1236.825 518.250 L 1242.327 533 1261.164 533 C 1279.780 533, 1280 532.975, 1280 530.847 C 1280 528.954, 1260.684 480.063, 1236.009 419.500 C 1231.527 408.500, 1226.058 394.887, 1223.856 389.250 L 1219.852 379 1202.901 379 C 1186.245 379, 1185.936 379.039, 1185.088 381.250 M 1063 422.941 C 1063 432.204, 1063.395 438.126, 1064.040 438.525 C 1064.612 438.878, 1068.315 438.622, 1072.269 437.955 C 1078.140 436.964, 1080.043 436.157, 1082.650 433.550 C 1088.211 427.989, 1088.357 418.005, 1082.952 412.955 C 1079.784 409.996, 1073.382 408, 1067.057 408 L 1063 408 1063 422.941 M 1195.190 449.750 C 1191.221 460.063, 1187.980 469.006, 1187.987 469.625 C 1187.996 470.414, 1192.498 470.713, 1203.051 470.625 C 1217.321 470.507, 1218.076 470.401, 1217.605 468.598 C 1216.554 464.579, 1203.472 431.016, 1202.953 431.008 C 1202.652 431.004, 1199.159 439.438, 1195.190 449.750 M 1063.226 487.750 L 1063.500 504.500 1073.280 504.375 C 1092.121 504.133, 1099.413 497.945, 1096.874 484.354 C 1095.119 474.960, 1087.682 471, 1071.794 471 L 1062.952 471 1063.226 487.750" stroke="none" fill="#fac406" fill-rule="evenodd"/><path d="M 73.199 352.588 C 66.913 355.721, 62.060 361.152, 59.712 367.681 C 58.084 372.209, 57.984 380.009, 58.233 483.019 L 58.500 593.500 60.711 597.634 C 63.514 602.874, 68.151 607.526, 73.076 610.039 C 76.851 611.965, 80.021 612, 248.575 612 L 420.229 612 425.167 609.313 C 430.407 606.461, 435.902 599.871, 437.852 594.101 C 438.688 591.624, 439 561.079, 439 481.529 C 439 360.550, 439.361 367.287, 432.443 359.205 C 430.547 356.989, 426.658 354.012, 423.801 352.588 L 418.607 350 248.500 350 L 78.393 350 73.199 352.588 M 516.667 377.667 C 516.300 378.033, 516 404.310, 516 436.060 C 516 487.776, 516.165 493.849, 517.582 494.393 C 520.257 495.419, 563.100 495.049, 570 493.940 C 573.575 493.365, 578.849 491.825, 581.720 490.516 C 587.840 487.728, 595.372 480.378, 597.151 475.460 C 597.839 473.557, 598.655 472, 598.965 472 C 599.274 472, 600.590 474.238, 601.889 476.973 C 604.776 483.054, 613.345 491.362, 619.414 493.963 C 629.513 498.292, 642.711 497.472, 651.375 491.977 C 655.374 489.441, 656 489.285, 656 490.822 C 656 494.393, 658.046 495, 670.078 495 C 679.301 495, 682.020 494.681, 683.015 493.481 C 683.999 492.296, 684.159 484.272, 683.746 456.922 C 683.454 437.650, 683.052 421.719, 682.852 421.519 C 682.652 421.319, 676.893 421.043, 670.054 420.906 C 657.315 420.651, 656.882 420.765, 655.402 424.765 C 655.348 424.910, 653.323 423.924, 650.902 422.573 C 645.293 419.444, 636.179 417.996, 628.662 419.040 C 616.313 420.756, 606.563 428.298, 600.815 440.582 L 597.800 447.024 595.008 443.169 C 591.411 438.204, 587.967 435.535, 582.433 433.421 L 577.981 431.721 581.626 428.180 C 587.384 422.588, 589.443 416.980, 589.402 407 C 589.338 391.111, 582.574 382.653, 566.500 378.359 C 561.247 376.956, 517.979 376.355, 516.667 377.667 M 100.872 392.654 C 99.732 394.028, 99.500 409.103, 99.500 481.734 C 99.500 567.123, 99.545 569.194, 101.441 570.581 C 103.090 571.787, 120.274 572, 215.691 572 C 326.184 572, 328.032 571.968, 329.975 570.025 C 331.061 568.939, 332.170 567.027, 332.440 565.775 C 332.709 564.524, 334.042 558.775, 335.401 553 C 339.078 537.368, 342.175 523.944, 343.013 520 C 343.422 518.075, 347.233 501.425, 351.483 483 C 373.439 387.816, 372.465 392.776, 369.418 391.607 C 368.548 391.273, 308.078 391, 235.041 391 C 112.735 391, 102.136 391.131, 100.872 392.654 M 695.667 394.667 C 695.300 395.033, 695 401.168, 695 408.298 L 695 421.263 691.127 420.744 C 685.174 419.945, 684.889 420.467, 685.212 431.583 L 685.500 441.500 690.250 441.805 L 695 442.110 695 456.388 C 695 473.493, 696.285 480.718, 700.415 486.842 C 705.118 493.815, 711.203 496.519, 721.979 496.427 C 731.013 496.349, 740 493.526, 740 490.766 C 740 490.026, 738.622 485.013, 736.939 479.627 C 734.360 471.379, 733.611 469.947, 732.189 470.558 C 731.260 470.957, 729.349 471.483, 727.943 471.727 C 723.467 472.503, 722.725 470.271, 722.545 455.472 L 722.381 442 732.941 442.002 L 743.500 442.005 743.509 459.291 L 743.517 476.578 746.752 483.148 C 750.617 491, 755.050 494.475, 763.318 496.135 C 773.015 498.082, 787.182 494.812, 787.772 490.491 C 788.249 486.993, 782.540 470.475, 780.938 470.719 C 780.147 470.839, 778.192 471.242, 776.594 471.615 C 771.761 472.742, 771 470.523, 771 455.309 L 771 442 776.918 442 C 786.190 442, 786 442.231, 786 430.937 L 786 421.088 778.750 420.794 L 771.500 420.500 771 407.500 L 770.500 394.500 757 394.500 L 743.500 394.500 743.459 407.384 L 743.418 420.267 732.959 420.384 L 722.500 420.500 722.864 409.398 C 723.403 392.986, 724.310 394, 709.099 394 C 702.078 394, 696.033 394.300, 695.667 394.667 M 545 411 L 545 422 547.750 421.994 C 553.372 421.983, 558.051 419.964, 560.048 416.689 C 565.192 408.253, 559.777 400, 549.099 400 L 545 400 545 411 M 110.460 403.250 C 110.198 403.938, 110.099 439.600, 110.242 482.500 L 110.500 560.500 215.945 560.755 C 273.940 560.895, 321.737 560.663, 322.160 560.240 C 322.583 559.817, 325.870 546.653, 329.466 530.986 C 340.150 484.424, 347.683 451.826, 353.033 429 C 355.804 417.175, 358.337 406.262, 358.661 404.750 L 359.250 402 235.094 402 C 136.690 402, 110.838 402.259, 110.460 403.250 M 450.509 416.121 C 450.219 416.879, 450.098 446.750, 450.241 482.500 L 450.500 547.500 454.937 547.211 C 460.604 546.841, 468.318 542.649, 472.088 537.889 C 478.024 530.394, 477.934 531.245, 478.041 481.651 C 478.133 438.748, 478.026 435.848, 476.213 431.750 C 473.547 425.722, 469.028 420.868, 463.524 418.119 C 457.634 415.178, 451.245 414.197, 450.509 416.121 M 816.527 419.114 C 790.450 422.912, 775.105 451.299, 786.518 474.626 C 789.584 480.893, 798.809 489.750, 805.590 492.937 C 816.958 498.281, 833.598 497.934, 845.435 492.107 C 851.873 488.937, 861 480.393, 861 477.536 C 861 476.578, 857.410 474.203, 851.589 471.312 L 842.178 466.637 838.616 469.764 C 835.110 472.842, 829.646 474.983, 825.270 474.994 C 818.828 475.011, 811 469.032, 811 464.096 C 811 462.023, 811.278 462, 836.531 462 C 859.534 462, 862.127 461.833, 862.708 460.318 C 863.742 457.623, 861.303 443.623, 858.914 438.541 C 854.104 428.308, 843.548 421.135, 830.308 419.104 C 826.353 418.497, 822.978 418.055, 822.808 418.122 C 822.639 418.189, 819.812 418.635, 816.527 419.114 M 907.146 419.572 C 901.851 420.996, 897.529 423.453, 895.039 426.453 C 892.994 428.917, 892 428.269, 892 424.471 L 892 420.942 878.750 421.221 L 865.500 421.500 865.237 456.882 C 865.046 482.596, 865.291 492.646, 866.134 493.662 C 867.036 494.748, 869.990 494.997, 879.397 494.780 L 891.500 494.500 892.319 473 C 893.217 449.399, 893.850 446.866, 899.550 444.035 C 903.307 442.170, 911.014 442.438, 915.554 444.593 C 917.489 445.511, 919.336 445.997, 919.659 445.674 C 919.982 445.351, 921.222 442.965, 922.413 440.372 L 924.579 435.657 937.289 458.457 C 944.280 470.996, 950 481.798, 950 482.459 C 950 483.121, 944.636 493.965, 938.080 506.556 C 931.523 519.147, 926.375 529.798, 926.639 530.224 C 926.902 530.651, 933.743 531, 941.841 531 L 956.563 531 984.532 477.420 C 999.914 447.951, 1012.645 423.201, 1012.823 422.420 C 1013.092 421.242, 1010.573 421, 998.032 421 L 982.917 421 976.467 434.750 C 972.919 442.313, 969.225 450.184, 968.258 452.241 L 966.500 455.983 957 438.497 L 947.500 421.012 938.500 420.971 C 933.550 420.949, 925.900 420.280, 921.500 419.485 C 912.138 417.793, 913.795 417.783, 907.146 419.572 M 817.315 438.464 C 815.563 439.226, 813.414 441.233, 812.539 442.925 L 810.949 446 823.474 446 C 830.363 446, 836 445.650, 836 445.223 C 836 443.564, 832.744 439.919, 829.989 438.494 C 826.420 436.649, 821.515 436.637, 817.315 438.464 M 633.604 444.266 C 623.602 450, 623.399 465.005, 633.241 471.005 C 637.570 473.645, 645.400 473.663, 649.696 471.044 C 653.941 468.455, 655.855 465.336, 656.619 459.760 C 658.378 446.931, 644.846 437.821, 633.604 444.266 M 545 459.493 L 545 472.282 553.398 471.758 C 563.764 471.111, 567.571 469.165, 569.216 463.672 C 570.141 460.586, 570.085 458.987, 568.937 455.703 C 566.973 450.086, 563.240 448.110, 553.120 447.330 L 545 446.704 545 459.493 M 173.635 458.073 C 171.184 460, 171 460.700, 171 468.073 L 171 476 163.434 476 C 154.339 476, 152 477.018, 152 480.978 C 152 485.407, 155.101 487, 163.723 487 L 171 487 171 494.845 C 171 503.304, 172.391 506, 176.757 506 C 180.795 506, 182 503.454, 182 494.929 L 182 487 189.566 487 C 198.985 487, 201 486.035, 201 481.524 C 201 479.651, 200.438 477.754, 199.750 477.309 C 199.063 476.864, 194.900 476.275, 190.500 476 L 182.500 475.500 182 467.167 C 181.596 460.434, 181.127 458.561, 179.559 457.417 C 177.045 455.582, 176.761 455.613, 173.635 458.073 M 257.557 478.223 C 255.499 481.160, 255.593 482.593, 258 485 C 259.872 486.872, 261.333 487, 280.777 487 C 297.964 487, 301.939 486.731, 303.777 485.443 C 306.473 483.555, 306.658 479.905, 304.171 477.655 C 302.588 476.222, 299.437 476, 280.728 476 C 259.526 476, 259.084 476.042, 257.557 478.223" stroke="none" fill="#fbfbfb" fill-rule="evenodd"/></svg>